Coordinates
version=1
nRows=10
nColumns=40
inDegrees=yes

Units are S.I. units (second, meters, Newtons, ...)
If the header above contains a line with 'inDegrees', this indicates whether rotational values are in degrees (yes) or radians (no).

endheader
time	pelvis_tilt	pelvis_list	pelvis_rotation	pelvis_tx	pelvis_ty	pelvis_tz	hip_flexion_r	hip_adduction_r	hip_rotation_r	knee_angle_r	knee_angle_r_beta	ankle_angle_r	subtalar_angle_r	mtp_angle_r	hip_flexion_l	hip_adduction_l	hip_rotation_l	knee_angle_l	knee_angle_l_beta	ankle_angle_l	subtalar_angle_l	mtp_angle_l	lumbar_extension	lumbar_bending	lumbar_rotation	arm_flex_r	arm_add_r	arm_rot_r	elbow_flex_r	pro_sup_r	wrist_flex_r	wrist_dev_r	arm_flex_l	arm_add_l	arm_rot_l	elbow_flex_l	pro_sup_l	wrist_flex_l	wrist_dev_l
      1.51000000	     -6.23969554	     -2.39064740	     -1.23202657	      0.19178450	      0.42367507	     -1.21011511	     99.49178398	    -47.41662038	     23.77606217	    125.57631338	      2.19172013	     38.42965274	     15.44868853	      0.00000000	    109.82749960	    -49.40573536	     34.85838566	    125.08559785	      2.18315553	     35.25246146	     27.48186800	      0.00000000	    -31.76519966	      1.65457373	     -1.39265195	     44.99991435	    -15.00000009	     44.99991435	     75.00017585	     45.00000026	      0.00000000	      0.00000000	     44.99991435	    -15.00000009	     44.99991435	     75.00017585	     45.00000026	      0.00000000	      0.00000000
      1.51500000	     -6.13161396	     -2.37466695	     -1.23013930	      0.19179272	      0.42297748	     -1.21018326	     99.56597935	    -47.42360469	     23.96595270	    125.67938261	      2.19351903	     38.45559401	     15.49195173	      0.00000000	    109.84841880	    -49.40602555	     34.97561870	    125.19968150	      2.18514666	     35.30978981	     27.51543580	      0.00000000	    -31.92762458	      1.64527394	     -1.35760573	     44.99991481	    -15.00000008	     44.99991481	     75.00017585	     45.00000026	      0.00000000	      0.00000000	     44.99991481	    -15.00000008	     44.99991481	     75.00017585	     45.00000026	      0.00000000	      0.00000000
      1.52000000	     -6.07014083	     -2.39105204	     -1.25011388	      0.19180289	      0.42219888	     -1.21022853	     99.63555476	    -47.39336257	     24.08936565	    125.77022580	      2.19510454	     38.46146069	     15.52306468	      0.00000000	    109.97899895	    -49.41575989	     35.17167897	    125.30563819	      2.18699596	     35.37483123	     27.55002017	      0.00000000	    -32.03538706	      1.66152637	     -1.31205448	     44.99991525	    -15.00000007	     44.99991525	     75.00017585	     45.00000026	      0.00000000	      0.00000000	     44.99991525	    -15.00000007	     44.99991525	     75.00017585	     45.00000026	      0.00000000	      0.00000000
      1.52500000	     -5.92895319	     -2.38281670	     -1.23612666	      0.19181927	      0.42164883	     -1.21030972	     99.64508784	    -47.42365144	     24.24880598	    125.86148395	      2.19669730	     38.48703246	     15.55533808	      0.00000000	    109.95037784	    -49.41433342	     35.27759036	    125.40408226	      2.18871413	     35.43086598	     27.59644944	      0.00000000	    -32.24767402	      1.66381227	     -1.29010839	     44.99991566	    -15.00000007	     44.99991566	     75.00017585	     45.00000026	      0.00000000	      0.00000000	     44.99991566	    -15.00000007	     44.99991566	     75.00017585	     45.00000026	      0.00000000	      0.00000000
      1.53000000	     -5.81756599	     -2.35488008	     -1.23693792	      0.19180281	      0.42101557	     -1.21035141	     99.72812401	    -47.42265674	     24.45810283	    125.96751101	      2.19854782	     38.51372497	     15.61152110	      0.00000000	    109.93555031	    -49.41808807	     35.36515137	    125.50555309	      2.19048513	     35.48409894	     27.65272847	      0.00000000	    -32.42356721	      1.62888524	     -1.25196409	     44.99991605	    -15.00000006	     44.99991605	     75.00017585	     45.00000026	      0.00000000	      0.00000000	     44.99991605	    -15.00000006	     44.99991605	     75.00017585	     45.00000026	      0.00000000	      0.00000000
      1.53500000	     -5.71688898	     -2.35929784	     -1.23450544	      0.19182007	      0.42037920	     -1.21041833	     99.76676036	    -47.42997739	     24.59778441	    126.05996377	      2.20016142	     38.53044296	     15.64062608	      0.00000000	    109.98038808	    -49.41671063	     35.50511585	    125.60461700	      2.19221412	     35.53794727	     27.69186853	      0.00000000	    -32.57868541	      1.63279305	     -1.23356765	     44.99991642	    -15.00000006	     44.99991642	     75.00017585	     45.00000026	      0.00000000	      0.00000000	     44.99991642	    -15.00000006	     44.99991642	     75.00017585	     45.00000026	      0.00000000	      0.00000000
      1.54000000	     -5.60549602	     -2.33691640	     -1.22747645	      0.19182145	      0.41979717	     -1.21046770	     99.82771546	    -47.43847679	     24.78199574	    126.15272922	      2.20178049	     38.55025837	     15.67841825	      0.00000000	    109.96309987	    -49.41791203	     35.59007353	    125.70019503	      2.19388227	     35.58932555	     27.74116425	      0.00000000	    -32.74802695	      1.60693791	     -1.21269700	     44.99991678	    -15.00000005	     44.99991678	     75.00017585	     45.00000026	      0.00000000	      0.00000000	     44.99991678	    -15.00000005	     44.99991678	     75.00017585	     45.00000026	      0.00000000	      0.00000000
      1.54500000	     -5.50330339	     -2.32598836	     -1.22472084	      0.19182230	      0.41919437	     -1.21051051	     99.88234213	    -47.43832120	     24.94614990	    126.24556965	      2.20340086	     38.56474482	     15.71899223	      0.00000000	    109.97534397	    -49.41842603	     35.69983560	    125.79394396	      2.19551850	     35.65185173	     27.78132811	      0.00000000	    -32.90241475	      1.58803391	     -1.19978020	     44.99991712	    -15.00000005	     44.99991712	     75.00017585	     45.00000026	      0.00000000	      0.00000000	     44.99991712	    -15.00000005	     44.99991712	     75.00017585	     45.00000026	      0.00000000	      0.00000000
      1.55000000	     -5.40586069	     -2.31391536	     -1.22065573	      0.19182068	      0.41858546	     -1.21055120	     99.94305940	    -47.43451391	     25.10957801	    126.33928566	      2.20503651	     38.57915672	     15.73236578	      0.00000000	    109.99578479	    -49.41785643	     35.81057741	    125.88769659	      2.19715479	     35.70061261	     27.83221569	      0.00000000	    -33.04566711	      1.56852896	     -1.19181707	     44.99991740	    -15.00000005	     44.99991740	     75.00017585	     45.00000026	      0.00000000	      0.00000000	     44.99991740	    -15.00000005	     44.99991740	     75.00017585	     45.00000026	      0.00000000	      0.00000000
      1.55500000	     -5.30367193	     -2.31187884	     -1.21308063	      0.19183685	      0.41803305	     -1.21061583	     99.97713364	    -47.44883626	     25.25123440	    126.42442437	      2.20652246	     38.59474608	     15.77347470	      0.00000000	    110.01105416	    -49.41514411	     35.92255138	    125.97524883	      2.19868287	     35.73888878	     27.88249361	      0.00000000	    -33.20203044	      1.56144832	     -1.18282097	     44.99991766	    -15.00000004	     44.99991766	     75.00017585	     45.00000026	      0.00000000	      0.00000000	     44.99991766	    -15.00000004	     44.99991766	     75.00017585	     45.00000026	      0.00000000	      0.00000000
